<?xml version="1.0" encoding="UTF-8" standalone="no"?>
<!-- Created with Inkscape (http://www.inkscape.org/) -->

<svg
   xmlns:dc="http://purl.org/dc/elements/1.1/"
   xmlns:cc="http://creativecommons.org/ns#"
   xmlns:rdf="http://www.w3.org/1999/02/22-rdf-syntax-ns#"
   xmlns:svg="http://www.w3.org/2000/svg"
   xmlns="http://www.w3.org/2000/svg"
   xmlns:sodipodi="http://sodipodi.sourceforge.net/DTD/sodipodi-0.dtd"
   xmlns:inkscape="http://www.inkscape.org/namespaces/inkscape"
   width="24px"
   height="24px"
   viewBox="0 0 24 24"
   version="1.1"
   id="SVGRoot"
   inkscape:version="0.92.2 5c3e80d, 2017-08-06"
   sodipodi:docname="Compass-3.svg">
  <sodipodi:namedview
     id="base"
     pagecolor="#ffffff"
     bordercolor="#666666"
     borderopacity="1.0"
     inkscape:pageopacity="0.0"
     inkscape:pageshadow="2"
     inkscape:zoom="256"
     inkscape:cx="12.536762"
     inkscape:cy="1.525244"
     inkscape:document-units="px"
     inkscape:current-layer="layer1"
     showgrid="false"
     inkscape:window-width="1920"
     inkscape:window-height="1035"
     inkscape:window-x="1920"
     inkscape:window-y="45"
     inkscape:window-maximized="0"
     inkscape:grid-bbox="true"
     inkscape:measure-start="33.9375,17.7656"
     inkscape:measure-end="28.5,5.71875"
     inkscape:pagecheckerboard="true" />
  <defs
     id="defs815" />
  <metadata
     id="metadata818">
    <rdf:RDF>
      <cc:Work
         rdf:about="">
        <dc:format>image/svg+xml</dc:format>
        <dc:type
           rdf:resource="http://purl.org/dc/dcmitype/StillImage" />
        <dc:title></dc:title>
        <cc:license
           rdf:resource="http://creativecommons.org/licenses/by/4.0/" />
      </cc:Work>
      <cc:License
         rdf:about="http://creativecommons.org/licenses/by/4.0/">
        <cc:permits
           rdf:resource="http://creativecommons.org/ns#Reproduction" />
        <cc:permits
           rdf:resource="http://creativecommons.org/ns#Distribution" />
        <cc:requires
           rdf:resource="http://creativecommons.org/ns#Notice" />
        <cc:requires
           rdf:resource="http://creativecommons.org/ns#Attribution" />
        <cc:permits
           rdf:resource="http://creativecommons.org/ns#DerivativeWorks" />
      </cc:License>
    </rdf:RDF>
  </metadata>
  <g
     id="layer1"
     inkscape:groupmode="layer"
     inkscape:label="Layer 1">
    <path
       style="opacity:1;fill:#5d3e5d;fill-opacity:1;stroke-width:1.05349791"
       d="M 12 0 A 12 12 0 0 0 11.15625 0.029296875 L 11.15625 0.056640625 A 12 12 0 0 0 0.044921875 11.15625 L 0.04296875 11.15625 A 12 12 0 0 0 0 12 A 12 12 0 0 0 0.029296875 12.84375 L 0.056640625 12.84375 A 12 12 0 0 0 11.15625 23.955078 L 11.15625 23.957031 A 12 12 0 0 0 12 24 A 12 12 0 0 0 12.84375 23.970703 L 12.84375 23.943359 A 12 12 0 0 0 23.955078 12.84375 L 23.957031 12.84375 A 12 12 0 0 0 24 12 A 12 12 0 0 0 23.970703 11.15625 L 23.943359 11.15625 A 12 12 0 0 0 12.84375 0.044921875 L 12.84375 0.04296875 A 12 12 0 0 0 12 0 z M 11.15625 2.2949219 L 11.15625 2.53125 A 0.84350002 0.84350002 0 0 0 11.960938 3.3730469 A 0.5625 0.5625 0 0 0 12 3.375 A 0.84350002 0.84350002 0 0 0 12.056641 3.3730469 A 0.5625 0.5625 0 0 0 12.0625 3.3730469 A 0.84350002 0.84350002 0 0 0 12.84375 2.53125 L 12.84375 2.3085938 A 9.75 9.75 0 0 1 21.705078 11.15625 L 21.46875 11.15625 A 0.84350002 0.84350002 0 0 0 20.626953 11.960938 A 0.84350002 0.84350002 0 0 0 20.625 12 A 0.5625 0.5625 0 0 0 20.626953 12.0625 A 0.84350002 0.84350002 0 0 0 21.46875 12.84375 L 21.691406 12.84375 A 9.75 9.75 0 0 1 12.84375 21.705078 L 12.84375 21.46875 A 0.84350002 0.84350002 0 0 0 12.039062 20.626953 A 0.5625 0.5625 0 0 0 12 20.625 A 0.5625 0.5625 0 0 0 11.943359 20.626953 A 0.84350002 0.84350002 0 0 0 11.9375 20.626953 A 0.84350002 0.84350002 0 0 0 11.15625 21.46875 L 11.15625 21.691406 A 9.75 9.75 0 0 1 2.2949219 12.84375 L 2.53125 12.84375 A 0.84350002 0.84350002 0 0 0 3.3730469 12.039062 A 0.5625 0.5625 0 0 0 3.375 12 A 0.84350002 0.84350002 0 0 0 3.3730469 11.943359 A 0.5625 0.5625 0 0 0 3.3730469 11.9375 A 0.84350002 0.84350002 0 0 0 2.53125 11.15625 L 2.3085938 11.15625 A 9.75 9.75 0 0 1 11.15625 2.2949219 z "
       id="path1374" />
    <path
       style="opacity:1;fill:#5d3e5d;fill-opacity:1;stroke-width:0.60475391"
       d="M 10.546875 10.625 L 5.8378906 18.162109 L 13.375 13.453125 L 12.666016 12.744141 A 1 1 0 0 1 12 13 A 1 1 0 0 1 11 12 A 1 1 0 0 1 11.255859 11.333984 L 10.546875 10.625 z "
       id="path1410" />
    <path
       style="opacity:1;fill:#ff4f1f;fill-opacity:1;stroke-width:0.60475391"
       d="M 18.162109 5.8378906 L 10.625 10.546875 L 11.333984 11.255859 A 1 1 0 0 1 12 11 A 1 1 0 0 1 13 12 A 1 1 0 0 1 12.744141 12.666016 L 13.453125 13.375 L 18.162109 5.8378906 z "
       id="path1412" />
    <circle
       style="opacity:0.8;fill:#c8ab37;fill-opacity:1;stroke-width:0.33316669"
       id="path817"
       cx="12"
       cy="12"
       r="0.99949998" />
  </g>
</svg>
