<?xml version="1.0" encoding="UTF-8" standalone="no"?>
<!-- Created with Inkscape (http://www.inkscape.org/) -->

<svg
   xmlns:dc="http://purl.org/dc/elements/1.1/"
   xmlns:cc="http://creativecommons.org/ns#"
   xmlns:rdf="http://www.w3.org/1999/02/22-rdf-syntax-ns#"
   xmlns:svg="http://www.w3.org/2000/svg"
   xmlns="http://www.w3.org/2000/svg"
   xmlns:sodipodi="http://sodipodi.sourceforge.net/DTD/sodipodi-0.dtd"
   xmlns:inkscape="http://www.inkscape.org/namespaces/inkscape"
   width="24px"
   height="24px"
   viewBox="0 0 24 24"
   version="1.1"
   id="SVGRoot"
   inkscape:export-filename="/home/makhra/Projects/inkscape/Search-1.png"
   inkscape:export-xdpi="96"
   inkscape:export-ydpi="96"
   sodipodi:docname="Search-hover-2.svg"
   inkscape:version="0.92.2 5c3e80d, 2017-08-06">
  <sodipodi:namedview
     id="base"
     pagecolor="#ffffff"
     bordercolor="#666666"
     borderopacity="1.0"
     inkscape:pageopacity="0.0"
     inkscape:pageshadow="2"
     inkscape:zoom="8.5902539"
     inkscape:cx="16.677526"
     inkscape:cy="-2.2956064"
     inkscape:document-units="px"
     inkscape:current-layer="layer1"
     showgrid="false"
     inkscape:window-width="941"
     inkscape:window-height="1013"
     inkscape:window-x="2885"
     inkscape:window-y="55"
     inkscape:window-maximized="0"
     inkscape:grid-bbox="true"
     inkscape:measure-start="26.0539,-5.12075"
     inkscape:measure-end="26.1102,-5.12075"
     inkscape:pagecheckerboard="true" />
  <defs
     id="defs1366" />
  <metadata
     id="metadata1369">
    <rdf:RDF>
      <cc:Work
         rdf:about="">
        <dc:format>image/svg+xml</dc:format>
        <dc:type
           rdf:resource="http://purl.org/dc/dcmitype/StillImage" />
        <dc:title></dc:title>
        <cc:license
           rdf:resource="http://creativecommons.org/licenses/by/4.0/" />
      </cc:Work>
      <cc:License
         rdf:about="http://creativecommons.org/licenses/by/4.0/">
        <cc:permits
           rdf:resource="http://creativecommons.org/ns#Reproduction" />
        <cc:permits
           rdf:resource="http://creativecommons.org/ns#Distribution" />
        <cc:requires
           rdf:resource="http://creativecommons.org/ns#Notice" />
        <cc:requires
           rdf:resource="http://creativecommons.org/ns#Attribution" />
        <cc:permits
           rdf:resource="http://creativecommons.org/ns#DerivativeWorks" />
      </cc:License>
    </rdf:RDF>
  </metadata>
  <g
     id="layer1"
     inkscape:groupmode="layer"
     inkscape:label="Layer 1">
    <path
       id="path817"
       style="opacity:1;fill:#ffffff;fill-opacity:1;stroke-width:0.77092022"
       d="m 23.425936,23.425718 a 1.3125,1.3125 0 0 1 -1.856156,0 1.3125,1.3125 0 0 1 0,-1.856155 1.3125,1.3125 0 0 1 1.856156,0 1.3125,1.3125 0 0 1 0,1.856155 z m -8.264045,-10.119729 -1.856155,1.856155 8.26431,8.264311 a 1.3125,1.3125 0 0 1 0,-1.856155 1.3125,1.3125 0 0 1 1.856156,0 z"
       inkscape:connector-curvature="0" />
    <path
       style="fill:#ffffff;fill-opacity:1;stroke-width:1.37359107"
       d="M 8.0000001,0 A 8,8 0 0 0 0,8 8,8 0 0 0 8.0000001,16 8,8 0 0 0 16,8 8,8 0 0 0 8.0000001,0 Z m 0,1.75 A 6.25,6.25 0 0 1 14.25,8 6.25,6.25 0 0 1 8.0000001,14.25 6.25,6.25 0 0 1 1.75,8 6.25,6.25 0 0 1 8.0000001,1.75 Z"
       id="path1929"
       inkscape:connector-curvature="0" />
    <path
       style="fill:#ffffff;fill-opacity:1;stroke-width:1.25110543;opacity:0.8"
       d="M 4.748047,3.7333986 A 5.375,5.375 0 0 0 2.625,8.0087886 5.375,5.375 0 0 0 4.730468,12.266601 8,8 0 0 1 3.5,8.0087886 8,8 0 0 1 4.748047,3.7333986 Z"
       id="path5643"
       inkscape:connector-curvature="0" />
  </g>
</svg>
